<?xml version="1.0" standalone="no"?><!DOCTYPE svg PUBLIC "-//W3C//DTD SVG 1.1//EN" "http://www.w3.org/Graphics/SVG/1.1/DTD/svg11.dtd"><svg t="1624852064448" class="icon" viewBox="0 0 1024 1024" version="1.1" xmlns="http://www.w3.org/2000/svg" p-id="3793" xmlns:xlink="http://www.w3.org/1999/xlink" width="16" height="16"><defs><style type="text/css"></style></defs><path d="M864.8192 806.2976h-227.5072v-123.904h227.5072V360.96h-92.544c-26.9824-3.8656-30.848-34.8416-30.848-61.952 0-27.136 3.8656-58.112 30.848-61.952h92.544c61.696 0 107.9808 54.1952 107.9808 116.1472v333.0304c0 61.952-46.2848 120.0384-107.9808 120.0384zM390.528 51.2L660.48 299.008l-269.9264 243.968V51.2zM163.0208 682.368h104.1152c19.2768 7.7568 15.4368 34.8672 15.4368 58.112 0 19.3536 0 42.5728-15.4368 50.3296H174.592C112.896 790.784 51.2 744.3456 51.2 682.368V360.9856c0-61.952 57.856-123.904 123.392-123.904h215.936v123.904H163.0208v321.3824zM637.312 972.8L359.68 736.5888 637.312 512v460.8z" fill="#ffc120" p-id="3794"></path></svg>